<svg xmlns="http://www.w3.org/2000/svg" viewBox="0 0 512 512">
  <defs>
    <linearGradient id="sky" x1="0%" y1="0%" x2="100%" y2="100%">
      <stop offset="0%" style="stop-color:#4A90D9"/>
      <stop offset="100%" style="stop-color:#1a5276"/>
    </linearGradient>
    <linearGradient id="sun" x1="0%" y1="0%" x2="100%" y2="100%">
      <stop offset="0%" style="stop-color:#f9d423"/>
      <stop offset="100%" style="stop-color:#ff4e50"/>
    </linearGradient>
  </defs>
  <rect width="512" height="512" rx="100" fill="url(#sky)"/>
  <circle cx="200" cy="200" r="70" fill="url(#sun)"/>
  <circle cx="200" cy="200" r="55" fill="#fbbf24" opacity="0.6"/>
  <path d="M300 280c0-44.2 35.8-60 60-60 8.8 0 17.2 2 24.7 5.5C374 190 345 165 310 165c-5.5 0-10.8.6-16 1.6C282 140 254 122 222 122c-46 0-84 34-89.5 78C100 205 74 235 74 270c0 40 32.4 72.5 72 72.5h216c33 0 60-27 60-60s-27-60-60-60h-2c-2-26-24-42.5-60-42.5z" fill="white" opacity="0.95"/>
</svg>
